<?xml version="1.0" encoding="UTF-8" standalone="no"?>
<!DOCTYPE svg PUBLIC "-//W3C//DTD SVG 1.1//EN" "http://www.w3.org/Graphics/SVG/1.1/DTD/svg11.dtd">
<!-- Created with Vectornator (http://vectornator.io/) -->
<svg height="100%" stroke-miterlimit="10" style="fill-rule:nonzero;clip-rule:evenodd;stroke-linecap:round;stroke-linejoin:round;" version="1.1" viewBox="0 0 116 95" width="100%" xml:space="preserve" xmlns="http://www.w3.org/2000/svg" xmlns:vectornator="http://vectornator.io" xmlns:xlink="http://www.w3.org/1999/xlink">
<defs/>
<g id="microbit-illustration" vectornator:layerName="microbit-illustration">
<g opacity="1">
<path d="M106 4.175L10 4.175C6.7 4.175 4 6.875 4 10.175L4 85.175C4 87.875 5.725 90.125 8.125 90.875C8.725 91.025 9.325 91.175 10 91.175L106 91.175C106.675 91.175 107.275 91.1 107.875 90.875C110.275 90.125 112 87.875 112 85.175L112 10.175C112 6.875 109.375 4.175 106 4.175ZM13 80.225C10.9 80.225 9.25 78.575 9.25 76.475C9.25 74.375 10.9 72.725 13 72.725C15.1 72.725 16.75 74.375 16.75 76.475C16.75 78.575 15.1 80.225 13 80.225ZM34.225 80.225C32.125 80.225 30.475 78.575 30.475 76.475C30.475 74.375 32.125 72.725 34.225 72.725C36.325 72.725 37.975 74.375 37.975 76.475C37.975 78.575 36.25 80.225 34.225 80.225ZM58 80.225C55.9 80.225 54.25 78.575 54.25 76.475C54.25 74.375 55.9 72.725 58 72.725C60.1 72.725 61.75 74.375 61.75 76.475C61.75 78.575 60.1 80.225 58 80.225ZM81.85 80.225C79.75 80.225 78.1 78.575 78.1 76.475C78.1 74.375 79.75 72.725 81.85 72.725C83.95 72.725 85.6 74.375 85.6 76.475C85.6 78.575 83.95 80.225 81.85 80.225ZM103 80.225C100.9 80.225 99.25 78.575 99.25 76.475C99.25 74.375 100.9 72.725 103 72.725C105.1 72.725 106.75 74.375 106.75 76.475C106.75 78.575 105.1 80.225 103 80.225Z" fill="#231f20" fill-rule="evenodd" opacity="0.1" stroke="#231f20" stroke-linecap="butt" stroke-linejoin="miter" stroke-width="6"/>
<path d="M106 4.175L10 4.175C6.7 4.175 4 6.875 4 10.175L4 85.175C4 87.875 5.725 90.125 8.125 90.875C8.725 91.025 9.325 91.175 10 91.175L106 91.175C106.675 91.175 107.275 91.1 107.875 90.875C110.275 90.125 112 87.875 112 85.175L112 10.175C112 6.875 109.375 4.175 106 4.175ZM13 80.225C10.9 80.225 9.25 78.575 9.25 76.475C9.25 74.375 10.9 72.725 13 72.725C15.1 72.725 16.75 74.375 16.75 76.475C16.75 78.575 15.1 80.225 13 80.225ZM34.225 80.225C32.125 80.225 30.475 78.575 30.475 76.475C30.475 74.375 32.125 72.725 34.225 72.725C36.325 72.725 37.975 74.375 37.975 76.475C37.975 78.575 36.25 80.225 34.225 80.225ZM58 80.225C55.9 80.225 54.25 78.575 54.25 76.475C54.25 74.375 55.9 72.725 58 72.725C60.1 72.725 61.75 74.375 61.75 76.475C61.75 78.575 60.1 80.225 58 80.225ZM81.85 80.225C79.75 80.225 78.1 78.575 78.1 76.475C78.1 74.375 79.75 72.725 81.85 72.725C83.95 72.725 85.6 74.375 85.6 76.475C85.6 78.575 83.95 80.225 81.85 80.225ZM103 80.225C100.9 80.225 99.25 78.575 99.25 76.475C99.25 74.375 100.9 72.725 103 72.725C105.1 72.725 106.75 74.375 106.75 76.475C106.75 78.575 105.1 80.225 103 80.225Z" fill="#414757" fill-rule="evenodd" opacity="1" stroke="none"/>
<path d="M4 31.175L4 10.175C4 6.875 6.7 4.175 10 4.175L31 4.175L4 31.175Z" fill="#4c97ff" fill-rule="evenodd" opacity="1" stroke="none"/>
<path d="M31 16.175L31 4.175L43 4.175L31 16.175Z" fill="#4c97ff" fill-rule="evenodd" opacity="1" stroke="none"/>
<path d="M43 13.175L43 4.175L52 4.175L43 13.175Z" fill="#4c97ff" fill-rule="evenodd" opacity="1" stroke="none"/>
<path d="M98.5 34.175L98.5 25.175L107.5 25.175L98.5 34.175Z" fill="#4c97ff" fill-rule="evenodd" opacity="1" stroke="#4c97ff" stroke-linecap="round" stroke-linejoin="round" stroke-width="0.75"/>
<path d="M17.5 55.175L17.5 64.175L8.5 64.175L17.5 55.175Z" fill="#4c97ff" fill-rule="evenodd" opacity="1" stroke="#4c97ff" stroke-linecap="round" stroke-linejoin="round" stroke-width="0.75"/>
<path d="M7 46.175C6.175 46.175 5.5 45.5 5.5 44.675C5.5 43.85 6.175 43.175 7 43.175C7.825 43.175 8.5 43.85 8.5 44.675C8.5 45.5 7.825 46.175 7 46.175Z" fill="#ffffff" fill-rule="evenodd" opacity="1" stroke="none"/>
<path d="M109 46.175C108.175 46.175 107.5 45.5 107.5 44.675C107.5 43.85 108.175 43.175 109 43.175C109.825 43.175 110.5 43.85 110.5 44.675C110.5 45.5 109.825 46.175 109 46.175Z" fill="#ffffff" fill-rule="evenodd" opacity="1" stroke="none"/>
<g opacity="1">
<path d="M61.825 19.55C62.425 19.55 62.875 19.1 62.875 18.5C62.875 17.9 62.425 17.45 61.825 17.45C61.225 17.45 60.775 17.9 60.775 18.5C60.775 19.1 61.225 19.55 61.825 19.55" fill="#4c97ff" fill-rule="evenodd" opacity="1" stroke="none"/>
<path d="M54.175 17.45C53.575 17.45 53.125 17.9 53.125 18.5C53.125 19.1 53.575 19.55 54.175 19.55C54.775 19.55 55.225 19.1 55.225 18.5C55.225 17.9 54.775 17.45 54.175 17.45" fill="#4c97ff" fill-rule="evenodd" opacity="1" stroke="none"/>
<path d="M54.175 15.425C52.45 15.425 51.1 16.775 51.1 18.5C51.1 20.225 52.45 21.575 54.175 21.575L61.9 21.575C63.625 21.575 64.975 20.225 64.975 18.5C64.975 16.775 63.625 15.425 61.9 15.425L54.175 15.425M61.9 23.675L54.175 23.675C51.325 23.675 49 21.35 49 18.5C49 15.65 51.325 13.325 54.175 13.325L61.9 13.325C64.75 13.325 67.075 15.65 67.075 18.5C67 21.35 64.75 23.675 61.9 23.675" fill="#4c97ff" fill-rule="evenodd" opacity="1" stroke="none"/>
</g>
<g opacity="1">
<path d="M23.5 37.175L11.5 37.175C10.675 37.175 10 37.85 10 38.675L10 50.675C10 51.5 10.675 52.175 11.5 52.175L23.5 52.175C24.325 52.175 25 51.5 25 50.675L25 38.675C25 37.85 24.325 37.175 23.5 37.175Z" fill="#231f20" fill-rule="evenodd" opacity="0.25" stroke="#231f20" stroke-linecap="round" stroke-linejoin="round" stroke-width="3"/>
<path d="M23.5 37.175L11.5 37.175C10.675 37.175 10 37.85 10 38.675L10 50.675C10 51.5 10.675 52.175 11.5 52.175L23.5 52.175C24.325 52.175 25 51.5 25 50.675L25 38.675C25 37.85 24.325 37.175 23.5 37.175Z" fill="#e6e7e8" fill-rule="evenodd" opacity="1" stroke="#7c87a5" stroke-linecap="round" stroke-linejoin="round" stroke-width="0.75"/>
<path d="M14.5 44.675C14.5 43.0181 15.8431 41.675 17.5 41.675C19.1569 41.675 20.5 43.0181 20.5 44.675C20.5 46.3319 19.1569 47.675 17.5 47.675C15.8431 47.675 14.5 46.3319 14.5 44.675Z" fill="#231f20" fill-rule="evenodd" opacity="0.1" stroke="#231f20" stroke-linecap="butt" stroke-linejoin="miter" stroke-width="2.25"/>
<path d="M14.5 44.675C14.5 43.0181 15.8431 41.675 17.5 41.675C19.1569 41.675 20.5 43.0181 20.5 44.675C20.5 46.3319 19.1569 47.675 17.5 47.675C15.8431 47.675 14.5 46.3319 14.5 44.675Z" fill="#414757" fill-rule="evenodd" opacity="1" stroke="#414757" stroke-linecap="butt" stroke-linejoin="miter" stroke-width="0.75"/>
</g>
<g opacity="1">
<path d="M104.5 37.175L92.5 37.175C91.675 37.175 91 37.85 91 38.675L91 50.675C91 51.5 91.675 52.175 92.5 52.175L104.5 52.175C105.325 52.175 106 51.5 106 50.675L106 38.675C106 37.85 105.325 37.175 104.5 37.175Z" fill="#231f20" fill-rule="evenodd" opacity="0.25" stroke="#231f20" stroke-linecap="round" stroke-linejoin="round" stroke-width="3"/>
<path d="M104.5 37.175L92.5 37.175C91.675 37.175 91 37.85 91 38.675L91 50.675C91 51.5 91.675 52.175 92.5 52.175L104.5 52.175C105.325 52.175 106 51.5 106 50.675L106 38.675C106 37.85 105.325 37.175 104.5 37.175Z" fill="#e6e7e8" fill-rule="evenodd" opacity="1" stroke="#7c87a5" stroke-linecap="round" stroke-linejoin="round" stroke-width="0.75"/>
<path d="M95.5 44.675C95.5 43.0181 96.8431 41.675 98.5 41.675C100.157 41.675 101.5 43.0181 101.5 44.675C101.5 46.3319 100.157 47.675 98.5 47.675C96.8431 47.675 95.5 46.3319 95.5 44.675Z" fill="#231f20" fill-rule="evenodd" opacity="0.1" stroke="#231f20" stroke-linecap="butt" stroke-linejoin="miter" stroke-width="2.25"/>
<path d="M95.5 44.675C95.5 43.0181 96.8431 41.675 98.5 41.675C100.157 41.675 101.5 43.0181 101.5 44.675C101.5 46.3319 100.157 47.675 98.5 47.675C96.8431 47.675 95.5 46.3319 95.5 44.675Z" fill="#414757" fill-rule="evenodd" opacity="1" stroke="#414757" stroke-linecap="butt" stroke-linejoin="miter" stroke-width="0.75"/>
</g>
<g opacity="1">
<g opacity="1">
<path d="M41.35 31.925L40.15 31.925C40.075 31.925 40 31.85 40 31.775L40 30.575C40 30.5 40.075 30.425 40.15 30.425L41.35 30.425C41.425 30.425 41.5 30.5 41.5 30.575L41.5 31.775C41.5 31.85 41.5 31.925 41.35 31.925Z" fill="#e6e7e8" fill-rule="evenodd" opacity="0.5" stroke="none"/>
<path d="M41.35 34.175L40.15 34.175C40.075 34.175 40 34.1 40 34.025L40 32.825C40 32.75 40.075 32.675 40.15 32.675L41.35 32.675C41.425 32.675 41.5 32.75 41.5 32.825L41.5 34.025C41.5 34.1 41.5 34.175 41.35 34.175Z" fill="#231f20" fill-rule="evenodd" opacity="0.25" stroke="none"/>
<path d="M41.35 33.425L40.15 33.425C40.075 33.425 40 33.35 40 33.275L40 31.325C40 31.25 40.075 31.175 40.15 31.175L41.35 31.175C41.425 31.175 41.5 31.25 41.5 31.325L41.5 33.275C41.5 33.35 41.5 33.425 41.35 33.425Z" fill="#e6e7e8" fill-rule="evenodd" opacity="1" stroke="none"/>
</g>
<g opacity="1">
<path d="M49.975 31.925L48.775 31.925C48.7 31.925 48.625 31.85 48.625 31.775L48.625 30.575C48.625 30.5 48.7 30.425 48.775 30.425L49.975 30.425C50.05 30.425 50.125 30.5 50.125 30.575L50.125 31.775C50.125 31.85 50.125 31.925 49.975 31.925Z" fill="#e6e7e8" fill-rule="evenodd" opacity="0.5" stroke="none"/>
<path d="M49.975 34.175L48.775 34.175C48.7 34.175 48.625 34.1 48.625 34.025L48.625 32.825C48.625 32.75 48.7 32.675 48.775 32.675L49.975 32.675C50.05 32.675 50.125 32.75 50.125 32.825L50.125 34.025C50.125 34.1 50.125 34.175 49.975 34.175Z" fill="#231f20" fill-rule="evenodd" opacity="0.25" stroke="none"/>
<path d="M49.975 33.425L48.775 33.425C48.7 33.425 48.625 33.35 48.625 33.275L48.625 31.325C48.625 31.25 48.7 31.175 48.775 31.175L49.975 31.175C50.05 31.175 50.125 31.25 50.125 31.325L50.125 33.275C50.125 33.35 50.125 33.425 49.975 33.425Z" fill="#e6e7e8" fill-rule="evenodd" opacity="1" stroke="none"/>
</g>
<g opacity="1">
<path d="M58.6 31.925L57.4 31.925C57.325 31.925 57.25 31.85 57.25 31.775L57.25 30.575C57.25 30.5 57.325 30.425 57.4 30.425L58.6 30.425C58.675 30.425 58.75 30.5 58.75 30.575L58.75 31.775C58.75 31.85 58.75 31.925 58.6 31.925Z" fill="#e6e7e8" fill-rule="evenodd" opacity="0.5" stroke="none"/>
<path d="M58.6 34.175L57.4 34.175C57.325 34.175 57.25 34.1 57.25 34.025L57.25 32.825C57.25 32.75 57.325 32.675 57.4 32.675L58.6 32.675C58.675 32.675 58.75 32.75 58.75 32.825L58.75 34.025C58.75 34.1 58.75 34.175 58.6 34.175Z" fill="#231f20" fill-rule="evenodd" opacity="0.25" stroke="none"/>
<path d="M58.6 33.425L57.4 33.425C57.325 33.425 57.25 33.35 57.25 33.275L57.25 31.325C57.25 31.25 57.325 31.175 57.4 31.175L58.6 31.175C58.675 31.175 58.75 31.25 58.75 31.325L58.75 33.275C58.75 33.35 58.75 33.425 58.6 33.425Z" fill="#e6e7e8" fill-rule="evenodd" opacity="1" stroke="none"/>
</g>
<g opacity="1">
<path d="M67.225 31.925L66.025 31.925C65.95 31.925 65.875 31.85 65.875 31.775L65.875 30.575C65.875 30.5 65.95 30.425 66.025 30.425L67.225 30.425C67.3 30.425 67.375 30.5 67.375 30.575L67.375 31.775C67.375 31.85 67.375 31.925 67.225 31.925Z" fill="#e6e7e8" fill-rule="evenodd" opacity="0.5" stroke="none"/>
<path d="M67.225 34.175L66.025 34.175C65.95 34.175 65.875 34.1 65.875 34.025L65.875 32.825C65.875 32.75 65.95 32.675 66.025 32.675L67.225 32.675C67.3 32.675 67.375 32.75 67.375 32.825L67.375 34.025C67.375 34.1 67.375 34.175 67.225 34.175Z" fill="#231f20" fill-rule="evenodd" opacity="0.25" stroke="none"/>
<path d="M67.225 33.425L66.025 33.425C65.95 33.425 65.875 33.35 65.875 33.275L65.875 31.325C65.875 31.25 65.95 31.175 66.025 31.175L67.225 31.175C67.3 31.175 67.375 31.25 67.375 31.325L67.375 33.275C67.375 33.35 67.375 33.425 67.225 33.425Z" fill="#e6e7e8" fill-rule="evenodd" opacity="1" stroke="none"/>
</g>
<g opacity="1">
<path d="M75.85 31.925L74.65 31.925C74.575 31.925 74.5 31.85 74.5 31.775L74.5 30.575C74.5 30.5 74.575 30.425 74.65 30.425L75.85 30.425C75.925 30.425 76 30.5 76 30.575L76 31.775C76 31.85 76 31.925 75.85 31.925Z" fill="#e6e7e8" fill-rule="evenodd" opacity="0.5" stroke="none"/>
<path d="M75.85 34.175L74.65 34.175C74.575 34.175 74.5 34.1 74.5 34.025L74.5 32.825C74.5 32.75 74.575 32.675 74.65 32.675L75.85 32.675C75.925 32.675 76 32.75 76 32.825L76 34.025C76 34.1 76 34.175 75.85 34.175Z" fill="#231f20" fill-rule="evenodd" opacity="0.25" stroke="none"/>
<path d="M75.85 33.425L74.65 33.425C74.575 33.425 74.5 33.35 74.5 33.275L74.5 31.325C74.5 31.25 74.575 31.175 74.65 31.175L75.85 31.175C75.925 31.175 76 31.25 76 31.325L76 33.275C76 33.35 76 33.425 75.85 33.425Z" fill="#e6e7e8" fill-rule="evenodd" opacity="1" stroke="none"/>
</g>
</g>
<g opacity="1">
<g opacity="1">
<path d="M41.35 40.325L40.15 40.325C40.075 40.325 40 40.25 40 40.175L40 38.975C40 38.9 40.075 38.825 40.15 38.825L41.35 38.825C41.425 38.825 41.5 38.9 41.5 38.975L41.5 40.175C41.5 40.25 41.5 40.325 41.35 40.325Z" fill="#e6e7e8" fill-rule="evenodd" opacity="0.5" stroke="none"/>
<path d="M41.35 42.575L40.15 42.575C40.075 42.575 40 42.5 40 42.425L40 41.225C40 41.15 40.075 41.075 40.15 41.075L41.35 41.075C41.425 41.075 41.5 41.15 41.5 41.225L41.5 42.425C41.5 42.5 41.5 42.575 41.35 42.575Z" fill="#231f20" fill-rule="evenodd" opacity="0.25" stroke="none"/>
<path d="M41.35 41.825L40.15 41.825C40.075 41.825 40 41.75 40 41.675L40 39.725C40 39.65 40.075 39.575 40.15 39.575L41.35 39.575C41.425 39.575 41.5 39.65 41.5 39.725L41.5 41.675C41.5 41.75 41.5 41.825 41.35 41.825Z" fill="#e6e7e8" fill-rule="evenodd" opacity="1" stroke="none"/>
</g>
<g opacity="1">
<path d="M49.975 40.325L48.775 40.325C48.7 40.325 48.625 40.25 48.625 40.175L48.625 38.975C48.625 38.9 48.7 38.825 48.775 38.825L49.975 38.825C50.05 38.825 50.125 38.9 50.125 38.975L50.125 40.175C50.125 40.25 50.125 40.325 49.975 40.325Z" fill="#e6e7e8" fill-rule="evenodd" opacity="0.5" stroke="none"/>
<path d="M49.975 42.575L48.775 42.575C48.7 42.575 48.625 42.5 48.625 42.425L48.625 41.225C48.625 41.15 48.7 41.075 48.775 41.075L49.975 41.075C50.05 41.075 50.125 41.15 50.125 41.225L50.125 42.425C50.125 42.5 50.125 42.575 49.975 42.575Z" fill="#231f20" fill-rule="evenodd" opacity="0.25" stroke="none"/>
<path d="M49.975 41.825L48.775 41.825C48.7 41.825 48.625 41.75 48.625 41.675L48.625 39.725C48.625 39.65 48.7 39.575 48.775 39.575L49.975 39.575C50.05 39.575 50.125 39.65 50.125 39.725L50.125 41.675C50.125 41.75 50.125 41.825 49.975 41.825Z" fill="#e6e7e8" fill-rule="evenodd" opacity="1" stroke="none"/>
</g>
<g opacity="1">
<path d="M58.6 40.325L57.4 40.325C57.325 40.325 57.25 40.25 57.25 40.175L57.25 38.975C57.25 38.9 57.325 38.825 57.4 38.825L58.6 38.825C58.675 38.825 58.75 38.9 58.75 38.975L58.75 40.175C58.75 40.25 58.75 40.325 58.6 40.325Z" fill="#e6e7e8" fill-rule="evenodd" opacity="0.5" stroke="none"/>
<path d="M58.6 42.575L57.4 42.575C57.325 42.575 57.25 42.5 57.25 42.425L57.25 41.225C57.25 41.15 57.325 41.075 57.4 41.075L58.6 41.075C58.675 41.075 58.75 41.15 58.75 41.225L58.75 42.425C58.75 42.5 58.75 42.575 58.6 42.575Z" fill="#231f20" fill-rule="evenodd" opacity="0.25" stroke="none"/>
<path d="M58.6 41.825L57.4 41.825C57.325 41.825 57.25 41.75 57.25 41.675L57.25 39.725C57.25 39.65 57.325 39.575 57.4 39.575L58.6 39.575C58.675 39.575 58.75 39.65 58.75 39.725L58.75 41.675C58.75 41.75 58.75 41.825 58.6 41.825Z" fill="#e6e7e8" fill-rule="evenodd" opacity="1" stroke="none"/>
</g>
<g opacity="1">
<path d="M67.225 40.325L66.025 40.325C65.95 40.325 65.875 40.25 65.875 40.175L65.875 38.975C65.875 38.9 65.95 38.825 66.025 38.825L67.225 38.825C67.3 38.825 67.375 38.9 67.375 38.975L67.375 40.175C67.375 40.25 67.375 40.325 67.225 40.325Z" fill="#e6e7e8" fill-rule="evenodd" opacity="0.5" stroke="none"/>
<path d="M67.225 42.575L66.025 42.575C65.95 42.575 65.875 42.5 65.875 42.425L65.875 41.225C65.875 41.15 65.95 41.075 66.025 41.075L67.225 41.075C67.3 41.075 67.375 41.15 67.375 41.225L67.375 42.425C67.375 42.5 67.375 42.575 67.225 42.575Z" fill="#231f20" fill-rule="evenodd" opacity="0.25" stroke="none"/>
<path d="M67.225 41.825L66.025 41.825C65.95 41.825 65.875 41.75 65.875 41.675L65.875 39.725C65.875 39.65 65.95 39.575 66.025 39.575L67.225 39.575C67.3 39.575 67.375 39.65 67.375 39.725L67.375 41.675C67.375 41.75 67.375 41.825 67.225 41.825Z" fill="#e6e7e8" fill-rule="evenodd" opacity="1" stroke="none"/>
</g>
<g opacity="1">
<path d="M75.85 40.325L74.65 40.325C74.575 40.325 74.5 40.25 74.5 40.175L74.5 38.975C74.5 38.9 74.575 38.825 74.65 38.825L75.85 38.825C75.925 38.825 76 38.9 76 38.975L76 40.175C76 40.25 76 40.325 75.85 40.325Z" fill="#e6e7e8" fill-rule="evenodd" opacity="0.5" stroke="none"/>
<path d="M75.85 42.575L74.65 42.575C74.575 42.575 74.5 42.5 74.5 42.425L74.5 41.225C74.5 41.15 74.575 41.075 74.65 41.075L75.85 41.075C75.925 41.075 76 41.15 76 41.225L76 42.425C76 42.5 76 42.575 75.85 42.575Z" fill="#231f20" fill-rule="evenodd" opacity="0.25" stroke="none"/>
<path d="M75.85 41.825L74.65 41.825C74.575 41.825 74.5 41.75 74.5 41.675L74.5 39.725C74.5 39.65 74.575 39.575 74.65 39.575L75.85 39.575C75.925 39.575 76 39.65 76 39.725L76 41.675C76 41.75 76 41.825 75.85 41.825Z" fill="#e6e7e8" fill-rule="evenodd" opacity="1" stroke="none"/>
</g>
</g>
<g opacity="1">
<g opacity="1">
<path d="M41.35 48.8L40.15 48.8C40.075 48.8 40 48.725 40 48.65L40 47.45C40 47.375 40.075 47.3 40.15 47.3L41.35 47.3C41.425 47.3 41.5 47.375 41.5 47.45L41.5 48.65C41.5 48.725 41.5 48.8 41.35 48.8Z" fill="#e6e7e8" fill-rule="evenodd" opacity="0.5" stroke="none"/>
<path d="M41.35 51.05L40.15 51.05C40.075 51.05 40 50.975 40 50.9L40 49.7C40 49.625 40.075 49.55 40.15 49.55L41.35 49.55C41.425 49.55 41.5 49.625 41.5 49.7L41.5 50.9C41.5 50.975 41.5 51.05 41.35 51.05Z" fill="#231f20" fill-rule="evenodd" opacity="0.25" stroke="none"/>
<path d="M41.35 50.3L40.15 50.3C40.075 50.3 40 50.225 40 50.15L40 48.2C40 48.125 40.075 48.05 40.15 48.05L41.35 48.05C41.425 48.05 41.5 48.125 41.5 48.2L41.5 50.15C41.5 50.225 41.5 50.3 41.35 50.3Z" fill="#e6e7e8" fill-rule="evenodd" opacity="1" stroke="none"/>
</g>
<g opacity="1">
<path d="M49.975 48.8L48.775 48.8C48.7 48.8 48.625 48.725 48.625 48.65L48.625 47.45C48.625 47.375 48.7 47.3 48.775 47.3L49.975 47.3C50.05 47.3 50.125 47.375 50.125 47.45L50.125 48.65C50.125 48.725 50.125 48.8 49.975 48.8Z" fill="#e6e7e8" fill-rule="evenodd" opacity="0.5" stroke="none"/>
<path d="M49.975 51.05L48.775 51.05C48.7 51.05 48.625 50.975 48.625 50.9L48.625 49.7C48.625 49.625 48.7 49.55 48.775 49.55L49.975 49.55C50.05 49.55 50.125 49.625 50.125 49.7L50.125 50.9C50.125 50.975 50.125 51.05 49.975 51.05Z" fill="#231f20" fill-rule="evenodd" opacity="0.25" stroke="none"/>
<path d="M49.975 50.3L48.775 50.3C48.7 50.3 48.625 50.225 48.625 50.15L48.625 48.2C48.625 48.125 48.7 48.05 48.775 48.05L49.975 48.05C50.05 48.05 50.125 48.125 50.125 48.2L50.125 50.15C50.125 50.225 50.125 50.3 49.975 50.3Z" fill="#e6e7e8" fill-rule="evenodd" opacity="1" stroke="none"/>
</g>
<g opacity="1">
<path d="M58.6 48.8L57.4 48.8C57.325 48.8 57.25 48.725 57.25 48.65L57.25 47.45C57.25 47.375 57.325 47.3 57.4 47.3L58.6 47.3C58.675 47.3 58.75 47.375 58.75 47.45L58.75 48.65C58.75 48.725 58.75 48.8 58.6 48.8Z" fill="#e6e7e8" fill-rule="evenodd" opacity="0.5" stroke="none"/>
<path d="M58.6 51.05L57.4 51.05C57.325 51.05 57.25 50.975 57.25 50.9L57.25 49.7C57.25 49.625 57.325 49.55 57.4 49.55L58.6 49.55C58.675 49.55 58.75 49.625 58.75 49.7L58.75 50.9C58.75 50.975 58.75 51.05 58.6 51.05Z" fill="#231f20" fill-rule="evenodd" opacity="0.25" stroke="none"/>
<path d="M58.6 50.3L57.4 50.3C57.325 50.3 57.25 50.225 57.25 50.15L57.25 48.2C57.25 48.125 57.325 48.05 57.4 48.05L58.6 48.05C58.675 48.05 58.75 48.125 58.75 48.2L58.75 50.15C58.75 50.225 58.75 50.3 58.6 50.3Z" fill="#e6e7e8" fill-rule="evenodd" opacity="1" stroke="none"/>
</g>
<g opacity="1">
<path d="M67.225 48.8L66.025 48.8C65.95 48.8 65.875 48.725 65.875 48.65L65.875 47.45C65.875 47.375 65.95 47.3 66.025 47.3L67.225 47.3C67.3 47.3 67.375 47.375 67.375 47.45L67.375 48.65C67.375 48.725 67.375 48.8 67.225 48.8Z" fill="#e6e7e8" fill-rule="evenodd" opacity="0.5" stroke="none"/>
<path d="M67.225 51.05L66.025 51.05C65.95 51.05 65.875 50.975 65.875 50.9L65.875 49.7C65.875 49.625 65.95 49.55 66.025 49.55L67.225 49.55C67.3 49.55 67.375 49.625 67.375 49.7L67.375 50.9C67.375 50.975 67.375 51.05 67.225 51.05Z" fill="#231f20" fill-rule="evenodd" opacity="0.25" stroke="none"/>
<path d="M67.225 50.3L66.025 50.3C65.95 50.3 65.875 50.225 65.875 50.15L65.875 48.2C65.875 48.125 65.95 48.05 66.025 48.05L67.225 48.05C67.3 48.05 67.375 48.125 67.375 48.2L67.375 50.15C67.375 50.225 67.375 50.3 67.225 50.3Z" fill="#e6e7e8" fill-rule="evenodd" opacity="1" stroke="none"/>
</g>
<g opacity="1">
<path d="M75.85 48.8L74.65 48.8C74.575 48.8 74.5 48.725 74.5 48.65L74.5 47.45C74.5 47.375 74.575 47.3 74.65 47.3L75.85 47.3C75.925 47.3 76 47.375 76 47.45L76 48.65C76 48.725 76 48.8 75.85 48.8Z" fill="#e6e7e8" fill-rule="evenodd" opacity="0.5" stroke="none"/>
<path d="M75.85 51.05L74.65 51.05C74.575 51.05 74.5 50.975 74.5 50.9L74.5 49.7C74.5 49.625 74.575 49.55 74.65 49.55L75.85 49.55C75.925 49.55 76 49.625 76 49.7L76 50.9C76 50.975 76 51.05 75.85 51.05Z" fill="#231f20" fill-rule="evenodd" opacity="0.25" stroke="none"/>
<path d="M75.85 50.3L74.65 50.3C74.575 50.3 74.5 50.225 74.5 50.15L74.5 48.2C74.5 48.125 74.575 48.05 74.65 48.05L75.85 48.05C75.925 48.05 76 48.125 76 48.2L76 50.15C76 50.225 76 50.3 75.85 50.3Z" fill="#e6e7e8" fill-rule="evenodd" opacity="1" stroke="none"/>
</g>
</g>
<g opacity="1">
<g opacity="1">
<path d="M41.35 57.2L40.15 57.2C40.075 57.2 40 57.125 40 57.05L40 55.85C40 55.775 40.075 55.7 40.15 55.7L41.35 55.7C41.425 55.7 41.5 55.775 41.5 55.85L41.5 57.05C41.5 57.125 41.5 57.2 41.35 57.2Z" fill="#e6e7e8" fill-rule="evenodd" opacity="0.5" stroke="none"/>
<path d="M41.35 59.45L40.15 59.45C40.075 59.45 40 59.375 40 59.3L40 58.1C40 58.025 40.075 57.95 40.15 57.95L41.35 57.95C41.425 57.95 41.5 58.025 41.5 58.1L41.5 59.3C41.5 59.375 41.5 59.45 41.35 59.45Z" fill="#231f20" fill-rule="evenodd" opacity="0.25" stroke="none"/>
<path d="M41.35 58.7L40.15 58.7C40.075 58.7 40 58.625 40 58.55L40 56.6C40 56.525 40.075 56.45 40.15 56.45L41.35 56.45C41.425 56.45 41.5 56.525 41.5 56.6L41.5 58.55C41.5 58.625 41.5 58.7 41.35 58.7Z" fill="#e6e7e8" fill-rule="evenodd" opacity="1" stroke="none"/>
</g>
<g opacity="1">
<path d="M49.975 57.2L48.775 57.2C48.7 57.2 48.625 57.125 48.625 57.05L48.625 55.85C48.625 55.775 48.7 55.7 48.775 55.7L49.975 55.7C50.05 55.7 50.125 55.775 50.125 55.85L50.125 57.05C50.125 57.125 50.125 57.2 49.975 57.2Z" fill="#e6e7e8" fill-rule="evenodd" opacity="0.5" stroke="none"/>
<path d="M49.975 59.45L48.775 59.45C48.7 59.45 48.625 59.375 48.625 59.3L48.625 58.1C48.625 58.025 48.7 57.95 48.775 57.95L49.975 57.95C50.05 57.95 50.125 58.025 50.125 58.1L50.125 59.3C50.125 59.375 50.125 59.45 49.975 59.45Z" fill="#231f20" fill-rule="evenodd" opacity="0.25" stroke="none"/>
<path d="M49.975 58.7L48.775 58.7C48.7 58.7 48.625 58.625 48.625 58.55L48.625 56.6C48.625 56.525 48.7 56.45 48.775 56.45L49.975 56.45C50.05 56.45 50.125 56.525 50.125 56.6L50.125 58.55C50.125 58.625 50.125 58.7 49.975 58.7Z" fill="#e6e7e8" fill-rule="evenodd" opacity="1" stroke="none"/>
</g>
<g opacity="1">
<path d="M58.6 57.2L57.4 57.2C57.325 57.2 57.25 57.125 57.25 57.05L57.25 55.85C57.25 55.775 57.325 55.7 57.4 55.7L58.6 55.7C58.675 55.7 58.75 55.775 58.75 55.85L58.75 57.05C58.75 57.125 58.75 57.2 58.6 57.2Z" fill="#e6e7e8" fill-rule="evenodd" opacity="0.5" stroke="none"/>
<path d="M58.6 59.45L57.4 59.45C57.325 59.45 57.25 59.375 57.25 59.3L57.25 58.1C57.25 58.025 57.325 57.95 57.4 57.95L58.6 57.95C58.675 57.95 58.75 58.025 58.75 58.1L58.75 59.3C58.75 59.375 58.75 59.45 58.6 59.45Z" fill="#231f20" fill-rule="evenodd" opacity="0.25" stroke="none"/>
<path d="M58.6 58.7L57.4 58.7C57.325 58.7 57.25 58.625 57.25 58.55L57.25 56.6C57.25 56.525 57.325 56.45 57.4 56.45L58.6 56.45C58.675 56.45 58.75 56.525 58.75 56.6L58.75 58.55C58.75 58.625 58.75 58.7 58.6 58.7Z" fill="#e6e7e8" fill-rule="evenodd" opacity="1" stroke="none"/>
</g>
<g opacity="1">
<path d="M67.225 57.2L66.025 57.2C65.95 57.2 65.875 57.125 65.875 57.05L65.875 55.85C65.875 55.775 65.95 55.7 66.025 55.7L67.225 55.7C67.3 55.7 67.375 55.775 67.375 55.85L67.375 57.05C67.375 57.125 67.375 57.2 67.225 57.2Z" fill="#e6e7e8" fill-rule="evenodd" opacity="0.5" stroke="none"/>
<path d="M67.225 59.45L66.025 59.45C65.95 59.45 65.875 59.375 65.875 59.3L65.875 58.1C65.875 58.025 65.95 57.95 66.025 57.95L67.225 57.95C67.3 57.95 67.375 58.025 67.375 58.1L67.375 59.3C67.375 59.375 67.375 59.45 67.225 59.45Z" fill="#231f20" fill-rule="evenodd" opacity="0.25" stroke="none"/>
<path d="M67.225 58.7L66.025 58.7C65.95 58.7 65.875 58.625 65.875 58.55L65.875 56.6C65.875 56.525 65.95 56.45 66.025 56.45L67.225 56.45C67.3 56.45 67.375 56.525 67.375 56.6L67.375 58.55C67.375 58.625 67.375 58.7 67.225 58.7Z" fill="#e6e7e8" fill-rule="evenodd" opacity="1" stroke="none"/>
</g>
<g opacity="1">
<path d="M75.85 57.2L74.65 57.2C74.575 57.2 74.5 57.125 74.5 57.05L74.5 55.85C74.5 55.775 74.575 55.7 74.65 55.7L75.85 55.7C75.925 55.7 76 55.775 76 55.85L76 57.05C76 57.125 76 57.2 75.85 57.2Z" fill="#e6e7e8" fill-rule="evenodd" opacity="0.5" stroke="none"/>
<path d="M75.85 59.45L74.65 59.45C74.575 59.45 74.5 59.375 74.5 59.3L74.5 58.1C74.5 58.025 74.575 57.95 74.65 57.95L75.85 57.95C75.925 57.95 76 58.025 76 58.1L76 59.3C76 59.375 76 59.45 75.85 59.45Z" fill="#231f20" fill-rule="evenodd" opacity="0.25" stroke="none"/>
<path d="M75.85 58.7L74.65 58.7C74.575 58.7 74.5 58.625 74.5 58.55L74.5 56.6C74.5 56.525 74.575 56.45 74.65 56.45L75.85 56.45C75.925 56.45 76 56.525 76 56.6L76 58.55C76 58.625 76 58.7 75.85 58.7Z" fill="#e6e7e8" fill-rule="evenodd" opacity="1" stroke="none"/>
</g>
</g>
<g opacity="1">
<g opacity="1">
<path d="M41.35 65.675L40.15 65.675C40.075 65.675 40 65.6 40 65.525L40 64.325C40 64.25 40.075 64.175 40.15 64.175L41.35 64.175C41.425 64.175 41.5 64.25 41.5 64.325L41.5 65.525C41.5 65.6 41.5 65.675 41.35 65.675Z" fill="#e6e7e8" fill-rule="evenodd" opacity="0.5" stroke="none"/>
<path d="M41.35 67.925L40.15 67.925C40.075 67.925 40 67.85 40 67.775L40 66.575C40 66.5 40.075 66.425 40.15 66.425L41.35 66.425C41.425 66.425 41.5 66.5 41.5 66.575L41.5 67.775C41.5 67.85 41.5 67.925 41.35 67.925Z" fill="#231f20" fill-rule="evenodd" opacity="0.25" stroke="none"/>
<path d="M41.35 67.175L40.15 67.175C40.075 67.175 40 67.1 40 67.025L40 65.075C40 65 40.075 64.925 40.15 64.925L41.35 64.925C41.425 64.925 41.5 65 41.5 65.075L41.5 67.025C41.5 67.1 41.5 67.175 41.35 67.175Z" fill="#e6e7e8" fill-rule="evenodd" opacity="1" stroke="none"/>
</g>
<g opacity="1">
<path d="M49.975 65.675L48.775 65.675C48.7 65.675 48.625 65.6 48.625 65.525L48.625 64.325C48.625 64.25 48.7 64.175 48.775 64.175L49.975 64.175C50.05 64.175 50.125 64.25 50.125 64.325L50.125 65.525C50.125 65.6 50.125 65.675 49.975 65.675Z" fill="#e6e7e8" fill-rule="evenodd" opacity="0.5" stroke="none"/>
<path d="M49.975 67.925L48.775 67.925C48.7 67.925 48.625 67.85 48.625 67.775L48.625 66.575C48.625 66.5 48.7 66.425 48.775 66.425L49.975 66.425C50.05 66.425 50.125 66.5 50.125 66.575L50.125 67.775C50.125 67.85 50.125 67.925 49.975 67.925Z" fill="#231f20" fill-rule="evenodd" opacity="0.25" stroke="none"/>
<path d="M49.975 67.175L48.775 67.175C48.7 67.175 48.625 67.1 48.625 67.025L48.625 65.075C48.625 65 48.7 64.925 48.775 64.925L49.975 64.925C50.05 64.925 50.125 65 50.125 65.075L50.125 67.025C50.125 67.1 50.125 67.175 49.975 67.175Z" fill="#e6e7e8" fill-rule="evenodd" opacity="1" stroke="none"/>
</g>
<g opacity="1">
<path d="M58.6 65.675L57.4 65.675C57.325 65.675 57.25 65.6 57.25 65.525L57.25 64.325C57.25 64.25 57.325 64.175 57.4 64.175L58.6 64.175C58.675 64.175 58.75 64.25 58.75 64.325L58.75 65.525C58.75 65.6 58.75 65.675 58.6 65.675Z" fill="#e6e7e8" fill-rule="evenodd" opacity="0.5" stroke="none"/>
<path d="M58.6 67.925L57.4 67.925C57.325 67.925 57.25 67.85 57.25 67.775L57.25 66.575C57.25 66.5 57.325 66.425 57.4 66.425L58.6 66.425C58.675 66.425 58.75 66.5 58.75 66.575L58.75 67.775C58.75 67.85 58.75 67.925 58.6 67.925Z" fill="#231f20" fill-rule="evenodd" opacity="0.25" stroke="none"/>
<path d="M58.6 67.175L57.4 67.175C57.325 67.175 57.25 67.1 57.25 67.025L57.25 65.075C57.25 65 57.325 64.925 57.4 64.925L58.6 64.925C58.675 64.925 58.75 65 58.75 65.075L58.75 67.025C58.75 67.1 58.75 67.175 58.6 67.175Z" fill="#e6e7e8" fill-rule="evenodd" opacity="1" stroke="none"/>
</g>
<g opacity="1">
<path d="M67.225 65.675L66.025 65.675C65.95 65.675 65.875 65.6 65.875 65.525L65.875 64.325C65.875 64.25 65.95 64.175 66.025 64.175L67.225 64.175C67.3 64.175 67.375 64.25 67.375 64.325L67.375 65.525C67.375 65.6 67.375 65.675 67.225 65.675Z" fill="#e6e7e8" fill-rule="evenodd" opacity="0.5" stroke="none"/>
<path d="M67.225 67.925L66.025 67.925C65.95 67.925 65.875 67.85 65.875 67.775L65.875 66.575C65.875 66.5 65.95 66.425 66.025 66.425L67.225 66.425C67.3 66.425 67.375 66.5 67.375 66.575L67.375 67.775C67.375 67.85 67.375 67.925 67.225 67.925Z" fill="#231f20" fill-rule="evenodd" opacity="0.25" stroke="none"/>
<path d="M67.225 67.175L66.025 67.175C65.95 67.175 65.875 67.1 65.875 67.025L65.875 65.075C65.875 65 65.95 64.925 66.025 64.925L67.225 64.925C67.3 64.925 67.375 65 67.375 65.075L67.375 67.025C67.375 67.1 67.375 67.175 67.225 67.175Z" fill="#e6e7e8" fill-rule="evenodd" opacity="1" stroke="none"/>
</g>
<g opacity="1">
<path d="M75.85 65.675L74.65 65.675C74.575 65.675 74.5 65.6 74.5 65.525L74.5 64.325C74.5 64.25 74.575 64.175 74.65 64.175L75.85 64.175C75.925 64.175 76 64.25 76 64.325L76 65.525C76 65.6 76 65.675 75.85 65.675Z" fill="#e6e7e8" fill-rule="evenodd" opacity="0.5" stroke="none"/>
<path d="M75.85 67.925L74.65 67.925C74.575 67.925 74.5 67.85 74.5 67.775L74.5 66.575C74.5 66.5 74.575 66.425 74.65 66.425L75.85 66.425C75.925 66.425 76 66.5 76 66.575L76 67.775C76 67.85 76 67.925 75.85 67.925Z" fill="#231f20" fill-rule="evenodd" opacity="0.25" stroke="none"/>
<path d="M75.85 67.175L74.65 67.175C74.575 67.175 74.5 67.1 74.5 67.025L74.5 65.075C74.5 65 74.575 64.925 74.65 64.925L75.85 64.925C75.925 64.925 76 65 76 65.075L76 67.025C76 67.1 76 67.175 75.85 67.175Z" fill="#e6e7e8" fill-rule="evenodd" opacity="1" stroke="none"/>
</g>
</g>
<g opacity="1">
<path d="M7.3 80.675L7.3 90.5C6.625 90.125 6.025 89.675 5.575 89.15L5.575 80.675L7.3 80.675Z" fill="#ffbf00" fill-rule="evenodd" opacity="1" stroke="none"/>
<path d="M9.55 91.1L9.925 91.1L9.925 80.675L8.2 80.675L8.2 90.875L9.55 91.1Z" fill="#ffbf00" fill-rule="evenodd" opacity="1" stroke="none"/>
<path d="M10.825 80.675L12.625 80.675L12.625 80.675L12.625 91.1L12.625 91.1L10.825 91.1L10.825 91.1L10.825 80.675L10.825 80.675Z" fill="#ffbf00" fill-rule="evenodd" opacity="1" stroke="none"/>
<path d="M13.45 80.675L15.25 80.675L15.25 80.675L15.25 91.1L15.25 91.1L13.45 91.1L13.45 91.1L13.45 80.675L13.45 80.675Z" fill="#ffbf00" fill-rule="evenodd" opacity="1" stroke="none"/>
<path d="M16.15 80.675L17.95 80.675L17.95 80.675L17.95 91.1L17.95 91.1L16.15 91.1L16.15 91.1L16.15 80.675L16.15 80.675Z" fill="#ffbf00" fill-rule="evenodd" opacity="1" stroke="none"/>
<path d="M18.775 80.675L20.575 80.675L20.575 80.675L20.575 91.1L20.575 91.1L18.775 91.1L18.775 91.1L18.775 80.675L18.775 80.675Z" fill="#ffbf00" fill-rule="evenodd" opacity="1" stroke="none"/>
<path d="M21.4 80.675L23.2 80.675L23.2 80.675L23.2 91.1L23.2 91.1L21.4 91.1L21.4 91.1L21.4 80.675L21.4 80.675Z" fill="#ffbf00" fill-rule="evenodd" opacity="1" stroke="none"/>
<path d="M24.025 80.675L25.825 80.675L25.825 80.675L25.825 91.1L25.825 91.1L24.025 91.1L24.025 91.1L24.025 80.675L24.025 80.675Z" fill="#ffbf00" fill-rule="evenodd" opacity="1" stroke="none"/>
<path d="M26.725 80.675L28.525 80.675L28.525 80.675L28.525 91.1L28.525 91.1L26.725 91.1L26.725 91.1L26.725 80.675L26.725 80.675Z" fill="#ffbf00" fill-rule="evenodd" opacity="1" stroke="none"/>
<path d="M29.35 80.675L31.15 80.675L31.15 80.675L31.15 91.1L31.15 91.1L29.35 91.1L29.35 91.1L29.35 80.675L29.35 80.675Z" fill="#ffbf00" fill-rule="evenodd" opacity="1" stroke="none"/>
<path d="M31.975 80.675L33.775 80.675L33.775 80.675L33.775 91.1L33.775 91.1L31.975 91.1L31.975 91.1L31.975 80.675L31.975 80.675Z" fill="#ffbf00" fill-rule="evenodd" opacity="1" stroke="none"/>
<path d="M34.675 80.675L36.475 80.675L36.475 80.675L36.475 91.1L36.475 91.1L34.675 91.1L34.675 91.1L34.675 80.675L34.675 80.675Z" fill="#ffbf00" fill-rule="evenodd" opacity="1" stroke="none"/>
<path d="M37.3 80.675L39.1 80.675L39.1 80.675L39.1 91.1L39.1 91.1L37.3 91.1L37.3 91.1L37.3 80.675L37.3 80.675Z" fill="#ffbf00" fill-rule="evenodd" opacity="1" stroke="none"/>
<path d="M39.925 80.675L41.725 80.675L41.725 80.675L41.725 91.1L41.725 91.1L39.925 91.1L39.925 91.1L39.925 80.675L39.925 80.675Z" fill="#ffbf00" fill-rule="evenodd" opacity="1" stroke="none"/>
<path d="M42.625 80.675L44.425 80.675L44.425 80.675L44.425 91.1L44.425 91.1L42.625 91.1L42.625 91.1L42.625 80.675L42.625 80.675Z" fill="#ffbf00" fill-rule="evenodd" opacity="1" stroke="none"/>
<path d="M45.25 80.675L47.05 80.675L47.05 80.675L47.05 91.1L47.05 91.1L45.25 91.1L45.25 91.1L45.25 80.675L45.25 80.675Z" fill="#ffbf00" fill-rule="evenodd" opacity="1" stroke="none"/>
<path d="M47.875 80.675L49.675 80.675L49.675 80.675L49.675 91.1L49.675 91.1L47.875 91.1L47.875 91.1L47.875 80.675L47.875 80.675Z" fill="#ffbf00" fill-rule="evenodd" opacity="1" stroke="none"/>
<path d="M50.5 80.675L52.3 80.675L52.3 80.675L52.3 91.1L52.3 91.1L50.5 91.1L50.5 91.1L50.5 80.675L50.5 80.675Z" fill="#ffbf00" fill-rule="evenodd" opacity="1" stroke="none"/>
<path d="M53.2 80.675L55 80.675L55 80.675L55 91.1L55 91.1L53.2 91.1L53.2 91.1L53.2 80.675L53.2 80.675Z" fill="#ffbf00" fill-rule="evenodd" opacity="1" stroke="none"/>
<path d="M55.825 80.675L57.625 80.675L57.625 80.675L57.625 91.1L57.625 91.1L55.825 91.1L55.825 91.1L55.825 80.675L55.825 80.675Z" fill="#ffbf00" fill-rule="evenodd" opacity="1" stroke="none"/>
<path d="M58.45 80.675L60.25 80.675L60.25 80.675L60.25 91.1L60.25 91.1L58.45 91.1L58.45 91.1L58.45 80.675L58.45 80.675Z" fill="#ffbf00" fill-rule="evenodd" opacity="1" stroke="none"/>
<path d="M61.15 80.675L62.95 80.675L62.95 80.675L62.95 91.1L62.95 91.1L61.15 91.1L61.15 91.1L61.15 80.675L61.15 80.675Z" fill="#ffbf00" fill-rule="evenodd" opacity="1" stroke="none"/>
<path d="M63.775 80.675L65.575 80.675L65.575 80.675L65.575 91.1L65.575 91.1L63.775 91.1L63.775 91.1L63.775 80.675L63.775 80.675Z" fill="#ffbf00" fill-rule="evenodd" opacity="1" stroke="none"/>
<path d="M66.4 80.675L68.2 80.675L68.2 80.675L68.2 91.1L68.2 91.1L66.4 91.1L66.4 91.1L66.4 80.675L66.4 80.675Z" fill="#ffbf00" fill-rule="evenodd" opacity="1" stroke="none"/>
<path d="M69.025 80.675L70.825 80.675L70.825 80.675L70.825 91.1L70.825 91.1L69.025 91.1L69.025 91.1L69.025 80.675L69.025 80.675Z" fill="#ffbf00" fill-rule="evenodd" opacity="1" stroke="none"/>
<path d="M71.725 80.675L73.525 80.675L73.525 80.675L73.525 91.1L73.525 91.1L71.725 91.1L71.725 91.1L71.725 80.675L71.725 80.675Z" fill="#ffbf00" fill-rule="evenodd" opacity="1" stroke="none"/>
<path d="M74.35 80.675L76.15 80.675L76.15 80.675L76.15 91.1L76.15 91.1L74.35 91.1L74.35 91.1L74.35 80.675L74.35 80.675Z" fill="#ffbf00" fill-rule="evenodd" opacity="1" stroke="none"/>
<path d="M76.975 80.675L78.775 80.675L78.775 80.675L78.775 91.1L78.775 91.1L76.975 91.1L76.975 91.1L76.975 80.675L76.975 80.675Z" fill="#ffbf00" fill-rule="evenodd" opacity="1" stroke="none"/>
<path d="M79.675 80.675L81.475 80.675L81.475 80.675L81.475 91.1L81.475 91.1L79.675 91.1L79.675 91.1L79.675 80.675L79.675 80.675Z" fill="#ffbf00" fill-rule="evenodd" opacity="1" stroke="none"/>
<path d="M82.3 80.675L84.1 80.675L84.1 80.675L84.1 91.1L84.1 91.1L82.3 91.1L82.3 91.1L82.3 80.675L82.3 80.675Z" fill="#ffbf00" fill-rule="evenodd" opacity="1" stroke="none"/>
<path d="M84.925 80.675L86.725 80.675L86.725 80.675L86.725 91.1L86.725 91.1L84.925 91.1L84.925 91.1L84.925 80.675L84.925 80.675Z" fill="#ffbf00" fill-rule="evenodd" opacity="1" stroke="none"/>
<path d="M87.625 80.675L89.425 80.675L89.425 80.675L89.425 91.1L89.425 91.1L87.625 91.1L87.625 91.1L87.625 80.675L87.625 80.675Z" fill="#ffbf00" fill-rule="evenodd" opacity="1" stroke="none"/>
<path d="M90.25 80.675L92.05 80.675L92.05 80.675L92.05 91.1L92.05 91.1L90.25 91.1L90.25 91.1L90.25 80.675L90.25 80.675Z" fill="#ffbf00" fill-rule="evenodd" opacity="1" stroke="none"/>
<path d="M92.875 80.675L94.675 80.675L94.675 80.675L94.675 91.1L94.675 91.1L92.875 91.1L92.875 91.1L92.875 80.675L92.875 80.675Z" fill="#ffbf00" fill-rule="evenodd" opacity="1" stroke="none"/>
<path d="M95.5 80.675L97.3 80.675L97.3 80.675L97.3 91.1L97.3 91.1L95.5 91.1L95.5 91.1L95.5 80.675L95.5 80.675Z" fill="#ffbf00" fill-rule="evenodd" opacity="1" stroke="none"/>
<path d="M98.2 80.675L100 80.675L100 80.675L100 91.1L100 91.1L98.2 91.1L98.2 91.1L98.2 80.675L98.2 80.675Z" fill="#ffbf00" fill-rule="evenodd" opacity="1" stroke="none"/>
<path d="M100.825 80.675L102.625 80.675L102.625 80.675L102.625 91.1L102.625 91.1L100.825 91.1L100.825 91.1L100.825 80.675L100.825 80.675Z" fill="#ffbf00" fill-rule="evenodd" opacity="1" stroke="none"/>
<path d="M103.45 80.675L105.25 80.675L105.25 80.675L105.25 91.1L105.25 91.1L103.45 91.1L103.45 91.1L103.45 80.675L103.45 80.675Z" fill="#ffbf00" fill-rule="evenodd" opacity="1" stroke="none"/>
<path d="M106.525 91.1L106.15 91.1L106.15 80.675L107.875 80.675L107.875 90.875L106.525 91.1Z" fill="#ffbf00" fill-rule="evenodd" opacity="1" stroke="none"/>
<path d="M110.5 80.675L110.5 89.15C109.975 89.75 109.45 90.2 108.775 90.5L108.775 80.675L110.5 80.675Z" fill="#ffbf00" fill-rule="evenodd" opacity="1" stroke="none"/>
</g>
<g opacity="1">
<path d="M13 80.225C10.9 80.225 9.25 78.575 9.25 76.475C9.25 74.375 10.9 72.725 13 72.725C15.1 72.725 16.75 74.375 16.75 76.475C16.75 78.575 15.1 80.225 13 80.225ZM10 91.175L17.875 91.175L17.875 76.55C17.875 75.2 17.35 74 16.45 73.1C15.55 72.2 14.35 71.675 13 71.675C10.3 71.675 8.125 73.85 8.125 76.55L8.125 90.875L10 91.175Z" fill="#ffbf00" fill-rule="evenodd" opacity="1" stroke="none"/>
<path d="M37.675 73.1C36.775 72.2 35.575 71.675 34.225 71.675C31.525 71.675 29.35 73.85 29.35 76.55L29.35 91.175L39.025 91.175L39.025 76.55C39.1 75.2 38.5 73.925 37.675 73.1ZM34.225 80.225C32.125 80.225 30.475 78.575 30.475 76.475C30.475 74.375 32.125 72.725 34.225 72.725C36.325 72.725 37.975 74.375 37.975 76.475C37.975 78.575 36.25 80.225 34.225 80.225Z" fill="#ffbf00" fill-rule="evenodd" opacity="1" stroke="none"/>
<path d="M61.45 73.1C60.55 72.2 59.35 71.675 58 71.675C55.3 71.675 53.125 73.85 53.125 76.55L53.125 91.175L62.8 91.175L62.8 76.55C62.875 75.2 62.35 73.925 61.45 73.1ZM58 80.225C55.9 80.225 54.25 78.575 54.25 76.475C54.25 74.375 55.9 72.725 58 72.725C60.1 72.725 61.75 74.375 61.75 76.475C61.75 78.575 60.1 80.225 58 80.225Z" fill="#ffbf00" fill-rule="evenodd" opacity="1" stroke="none"/>
<path d="M85.3 73.1C84.4 72.2 83.2 71.675 81.85 71.675C79.15 71.675 76.975 73.85 76.975 76.55L76.975 91.175L86.65 91.175L86.65 76.55C86.725 75.2 86.2 73.925 85.3 73.1ZM81.85 80.225C79.75 80.225 78.1 78.575 78.1 76.475C78.1 74.375 79.75 72.725 81.85 72.725C83.95 72.725 85.6 74.375 85.6 76.475C85.6 78.575 83.95 80.225 81.85 80.225Z" fill="#ffbf00" fill-rule="evenodd" opacity="1" stroke="none"/>
<path d="M106.45 73.1C105.55 72.2 104.35 71.675 103 71.675C100.3 71.675 98.125 73.85 98.125 76.55L98.125 91.175L106 91.175L107.875 90.875L107.875 76.55C107.875 75.2 107.35 73.925 106.45 73.1ZM103 80.225C100.9 80.225 99.25 78.575 99.25 76.475C99.25 74.375 100.9 72.725 103 72.725C105.1 72.725 106.75 74.375 106.75 76.475C106.75 78.575 105.1 80.225 103 80.225Z" fill="#ffbf00" fill-rule="evenodd" opacity="1" stroke="none"/>
</g>
<path d="M13.0064 83.537C13.3458 83.537 13.5911 83.6768 13.7425 83.9563C13.8597 84.1724 13.9183 84.4684 13.9183 84.8444C13.9183 85.2009 13.8652 85.4956 13.759 85.7288C13.6052 86.0633 13.3537 86.2305 13.0046 86.2305C12.6896 86.2305 12.4553 86.0938 12.3014 85.8204C12.1733 85.5921 12.1092 85.2857 12.1092 84.9012C12.1092 84.6033 12.1476 84.3476 12.2245 84.134C12.3686 83.736 12.6292 83.537 13.0064 83.537ZM13.0027 85.9302C13.1736 85.9302 13.3097 85.8545 13.4111 85.7032C13.5124 85.5518 13.563 85.2698 13.563 84.8572C13.563 84.5594 13.5264 84.3143 13.4532 84.1221C13.3799 83.9298 13.2377 83.8337 13.0265 83.8337C12.8325 83.8337 12.6905 83.9249 12.6008 84.1074C12.5111 84.2899 12.4662 84.5588 12.4662 84.914C12.4662 85.1813 12.4949 85.3962 12.5523 85.5585C12.6402 85.8063 12.7903 85.9302 13.0027 85.9302Z" fill="#414757" fill-rule="evenodd" opacity="1" stroke="none"/>
<path d="M15.8801 62.4939L15.4717 61.3055L15.0378 62.4939L15.8801 62.4939ZM15.2813 60.9064L15.6933 60.9064L16.6692 63.5962L16.2701 63.5962L15.9972 62.7905L14.9334 62.7905L14.6423 63.5962L14.2687 63.5962L15.2813 60.9064Z" fill="#414757" fill-rule="evenodd" opacity="1" stroke="none"/>
<path d="M100.252 27.4027C100.406 27.4027 100.525 27.3814 100.611 27.3387C100.745 27.2715 100.812 27.1507 100.812 26.9761C100.812 26.8003 100.741 26.6819 100.598 26.6209C100.517 26.5867 100.398 26.5696 100.239 26.5696L99.5891 26.5696L99.5891 27.4027L100.252 27.4027ZM100.375 28.6442C100.598 28.6442 100.757 28.5795 100.853 28.4501C100.912 28.3683 100.942 28.2694 100.942 28.1535C100.942 27.9582 100.855 27.8251 100.68 27.7543C100.588 27.7165 100.465 27.6975 100.312 27.6975L99.5891 27.6975L99.5891 28.6442L100.375 28.6442ZM99.232 26.2657L100.387 26.2657C100.702 26.2657 100.926 26.3596 101.059 26.5476C101.138 26.6587 101.177 26.7869 101.177 26.9322C101.177 27.1018 101.128 27.241 101.032 27.3496C100.982 27.407 100.91 27.4595 100.816 27.5071C100.954 27.5596 101.057 27.6188 101.125 27.6847C101.246 27.8019 101.307 27.9637 101.307 28.17C101.307 28.3433 101.252 28.5002 101.144 28.6405C100.981 28.8505 100.723 28.9555 100.369 28.9555L99.232 28.9555L99.232 26.2657Z" fill="#414757" fill-rule="evenodd" opacity="1" stroke="none"/>
<path d="M33.3495 84.3024L33.3495 84.0497C33.5876 84.0265 33.7536 83.9878 33.8476 83.9335C33.9416 83.8791 34.0118 83.7507 34.0582 83.548L34.3182 83.548L34.3182 86.1591L33.9666 86.1591L33.9666 84.3024L33.3495 84.3024Z" fill="#414757" fill-rule="evenodd" opacity="1" stroke="none"/>
<path d="M57.1078 86.1591C57.12 85.9333 57.1667 85.7367 57.2479 85.5695C57.3291 85.4023 57.4875 85.2503 57.7231 85.1136L58.0746 84.9103C58.2321 84.8188 58.3426 84.7406 58.4061 84.6759C58.5062 84.5746 58.5562 84.4587 58.5562 84.328C58.5562 84.1755 58.5104 84.0543 58.4189 83.9646C58.3273 83.8749 58.2052 83.83 58.0527 83.83C57.8268 83.83 57.6706 83.9154 57.5839 84.0863C57.5375 84.1779 57.5119 84.3048 57.507 84.4672L57.1719 84.4672C57.1756 84.2389 57.2177 84.0528 57.2983 83.9087C57.4411 83.6548 57.6932 83.5279 58.0545 83.5279C58.3548 83.5279 58.5742 83.609 58.7128 83.7714C58.8513 83.9338 58.9206 84.1144 58.9206 84.3134C58.9206 84.5234 58.8467 84.7028 58.699 84.8517C58.6136 84.9384 58.4604 85.0434 58.2394 85.1667L57.9886 85.3058C57.8689 85.3717 57.775 85.4346 57.7066 85.4944C57.5845 85.6006 57.5076 85.7184 57.4759 85.8478L58.9078 85.8478L58.9078 86.1591L57.1078 86.1591Z" fill="#414757" fill-rule="evenodd" opacity="1" stroke="none"/>
<path d="M81.5018 84.7685C81.5006 84.7682 81.4994 84.7678 81.4982 84.7675L81.5018 84.7685ZM81.5018 84.7685C81.638 84.8066 81.7445 84.8792 81.8214 84.9863C81.8989 85.0943 81.9377 85.2265 81.9377 85.3827C81.9377 85.633 81.8553 85.8368 81.6905 85.9943C81.5257 86.1518 81.2919 86.2305 80.9892 86.2305C80.6791 86.2305 80.4542 86.1454 80.3144 85.9751C80.1747 85.8048 80.1048 85.5976 80.1048 85.3534L80.449 85.3534C80.4637 85.5231 80.4954 85.6464 80.5442 85.7233C80.6297 85.8613 80.7841 85.9302 81.0075 85.9302C81.1808 85.9302 81.32 85.8838 81.425 85.7911C81.5299 85.6983 81.5824 85.5787 81.5824 85.4322C81.5824 85.2515 81.5272 85.1252 81.4167 85.0531C81.3063 84.9811 81.1527 84.9451 80.9562 84.9451C80.9342 84.9451 80.912 84.9454 80.8894 84.946C80.8668 84.9466 80.8439 84.9476 80.8207 84.9488L80.8207 84.6576C80.8549 84.6613 80.8836 84.6637 80.9068 84.665C80.93 84.6662 80.955 84.6668 80.9818 84.6668C81.1051 84.6668 81.2065 84.6473 81.2858 84.6082C81.425 84.5398 81.4945 84.4178 81.4945 84.242C81.4945 84.1114 81.4482 84.0107 81.3554 83.9399C81.2626 83.8691 81.1546 83.8337 81.0313 83.8337C80.8116 83.8337 80.6596 83.9069 80.5754 84.0534C80.529 84.134 80.5027 84.2487 80.4966 84.3976L80.1707 84.3976C80.1707 84.2023 80.2098 84.0363 80.2879 83.8996C80.4222 83.6554 80.6584 83.5334 80.9965 83.5334C81.2638 83.5334 81.4707 83.5929 81.6172 83.7119C81.7637 83.8309 81.837 84.0033 81.837 84.2292C81.837 84.3903 81.7936 84.5209 81.7069 84.621C81.6532 84.6833 81.5837 84.7321 81.4982 84.7675L81.5018 84.7685ZM82.5035 84.198L83.0271 85.7947L83.5746 84.198L83.9353 84.198L83.1956 86.1591L82.844 86.1591L82.1208 84.198L82.5035 84.198Z" fill="#414757" fill-rule="evenodd" opacity="1" stroke="none"/>
<path d="M100.279 83.3997C100.532 83.3997 100.751 83.4485 100.935 83.5462C101.202 83.6866 101.366 83.9325 101.426 84.2841L101.065 84.2841C101.021 84.0876 100.93 83.9444 100.792 83.8547C100.654 83.765 100.48 83.7201 100.27 83.7201C100.021 83.7201 99.8115 83.8135 99.6412 84.0003C99.4709 84.1871 99.3858 84.4654 99.3858 84.8353C99.3858 85.1551 99.456 85.4154 99.5964 85.6162C99.7367 85.817 99.9656 85.9174 100.283 85.9174C100.526 85.9174 100.727 85.8469 100.886 85.7059C101.046 85.5649 101.127 85.337 101.131 85.022L100.288 85.022L100.288 84.7199L101.47 84.7199L101.47 86.1591L101.235 86.1591L101.147 85.813C101.024 85.9485 100.915 86.0425 100.82 86.095C100.66 86.1853 100.456 86.2305 100.21 86.2305C99.8912 86.2305 99.6171 86.1274 99.3876 85.9211C99.1374 85.6623 99.0123 85.3071 99.0123 84.8554C99.0123 84.4049 99.1343 84.0467 99.3785 83.7806C99.6104 83.5266 99.9107 83.3997 100.279 83.3997ZM102.033 83.4693L102.464 83.4693L103.822 85.6482L103.822 83.4693L104.169 83.4693L104.169 86.1591L103.76 86.1591L102.381 83.982L102.381 86.1591L102.033 86.1591L102.033 83.4693ZM105.774 85.8478C105.898 85.8478 105.999 85.835 106.078 85.8094C106.22 85.7618 106.336 85.6702 106.426 85.5347C106.498 85.4261 106.55 85.2869 106.582 85.1172C106.6 85.0159 106.609 84.9219 106.609 84.8353C106.609 84.502 106.543 84.2432 106.411 84.0589C106.278 83.8745 106.065 83.7824 105.771 83.7824L105.124 83.7824L105.124 85.8478L105.774 85.8478ZM104.758 83.4693L105.848 83.4693C106.217 83.4693 106.504 83.6005 106.708 83.863C106.89 84.0998 106.981 84.4031 106.981 84.773C106.981 85.0586 106.927 85.3168 106.82 85.5475C106.631 85.9552 106.305 86.1591 105.844 86.1591L104.758 86.1591L104.758 83.4693Z" fill="#414757" fill-rule="evenodd" opacity="1" stroke="none"/>
<g opacity="1">
<g opacity="0.5">
<path d="M49.975 33.425L48.775 33.425C48.7 33.425 48.625 33.35 48.625 33.275L48.625 31.325C48.625 31.25 48.7 31.175 48.775 31.175L49.975 31.175C50.05 31.175 50.125 31.25 50.125 31.325L50.125 33.275C50.125 33.35 50.125 33.425 49.975 33.425Z" fill="#ff4e00" fill-rule="evenodd" opacity="1" stroke="#ff4e00" stroke-linecap="butt" stroke-linejoin="miter" stroke-width="5"/>
<path d="M67.225 33.425L66.025 33.425C65.95 33.425 65.875 33.35 65.875 33.275L65.875 31.325C65.875 31.25 65.95 31.175 66.025 31.175L67.225 31.175C67.3 31.175 67.375 31.25 67.375 31.325L67.375 33.275C67.375 33.35 67.375 33.425 67.225 33.425Z" fill="#ff4e00" fill-rule="evenodd" opacity="1" stroke="#ff4e00" stroke-linecap="butt" stroke-linejoin="miter" stroke-width="5"/>
<path d="M41.35 58.7L40.15 58.7C40.075 58.7 40 58.625 40 58.55L40 56.6C40 56.525 40.075 56.45 40.15 56.45L41.35 56.45C41.425 56.45 41.5 56.525 41.5 56.6L41.5 58.55C41.5 58.625 41.5 58.7 41.35 58.7Z" fill="#ff4e00" fill-rule="evenodd" opacity="1" stroke="#ff4e00" stroke-linecap="butt" stroke-linejoin="miter" stroke-width="5"/>
<path d="M75.85 58.7L74.65 58.7C74.575 58.7 74.5 58.625 74.5 58.55L74.5 56.6C74.5 56.525 74.575 56.45 74.65 56.45L75.85 56.45C75.925 56.45 76 56.525 76 56.6L76 58.55C76 58.625 76 58.7 75.85 58.7Z" fill="#ff4e00" fill-rule="evenodd" opacity="1" stroke="#ff4e00" stroke-linecap="butt" stroke-linejoin="miter" stroke-width="5"/>
<path d="M49.975 67.17L48.775 67.17C48.7 67.17 48.625 67.095 48.625 67.02L48.625 65.07C48.625 64.995 48.7 64.92 48.775 64.92L49.975 64.92C50.05 64.92 50.125 64.995 50.125 65.07L50.125 67.02C50.125 67.095 50.125 67.17 49.975 67.17Z" fill="#ff4e00" fill-rule="evenodd" opacity="1" stroke="#ff4e00" stroke-linecap="butt" stroke-linejoin="miter" stroke-width="5"/>
<path d="M58.6 67.175L57.4 67.175C57.325 67.175 57.25 67.1 57.25 67.025L57.25 65.075C57.25 65 57.325 64.925 57.4 64.925L58.6 64.925C58.675 64.925 58.75 65 58.75 65.075L58.75 67.025C58.75 67.1 58.75 67.175 58.6 67.175Z" fill="#ff4e00" fill-rule="evenodd" opacity="1" stroke="#ff4e00" stroke-linecap="butt" stroke-linejoin="miter" stroke-width="5"/>
<path d="M67.225 67.17L66.025 67.17C65.95 67.17 65.875 67.095 65.875 67.02L65.875 65.07C65.875 64.995 65.95 64.92 66.025 64.92L67.225 64.92C67.3 64.92 67.375 64.995 67.375 65.07L67.375 67.02C67.375 67.095 67.375 67.17 67.225 67.17Z" fill="#ff4e00" fill-rule="evenodd" opacity="1" stroke="#ff4e00" stroke-linecap="butt" stroke-linejoin="miter" stroke-width="5"/>
<path d="M49.975 41.825L48.775 41.825C48.7 41.825 48.625 41.75 48.625 41.675L48.625 39.725C48.625 39.65 48.7 39.575 48.775 39.575L49.975 39.575C50.05 39.575 50.125 39.65 50.125 39.725L50.125 41.675C50.125 41.75 50.125 41.825 49.975 41.825Z" fill="#ff4e00" fill-rule="evenodd" opacity="1" stroke="#ff4e00" stroke-linecap="butt" stroke-linejoin="miter" stroke-width="5"/>
<path d="M67.225 41.825L66.025 41.825C65.95 41.825 65.875 41.75 65.875 41.675L65.875 39.725C65.875 39.65 65.95 39.575 66.025 39.575L67.225 39.575C67.3 39.575 67.375 39.65 67.375 39.725L67.375 41.675C67.375 41.75 67.375 41.825 67.225 41.825Z" fill="#ff4e00" fill-rule="evenodd" opacity="1" stroke="#ff4e00" stroke-linecap="butt" stroke-linejoin="miter" stroke-width="5"/>
</g>
<g opacity="1">
<path d="M49.975 33.425L48.775 33.425C48.7 33.425 48.625 33.35 48.625 33.275L48.625 31.325C48.625 31.25 48.7 31.175 48.775 31.175L49.975 31.175C50.05 31.175 50.125 31.25 50.125 31.325L50.125 33.275C50.125 33.35 50.125 33.425 49.975 33.425Z" fill="#ff4e00" fill-rule="evenodd" opacity="1" stroke="#ff4e00" stroke-linecap="butt" stroke-linejoin="miter" stroke-width="1.5"/>
<path d="M67.225 33.425L66.025 33.425C65.95 33.425 65.875 33.35 65.875 33.275L65.875 31.325C65.875 31.25 65.95 31.175 66.025 31.175L67.225 31.175C67.3 31.175 67.375 31.25 67.375 31.325L67.375 33.275C67.375 33.35 67.375 33.425 67.225 33.425Z" fill="#ff4e00" fill-rule="evenodd" opacity="1" stroke="#ff4e00" stroke-linecap="butt" stroke-linejoin="miter" stroke-width="1.5"/>
<path d="M41.35 58.7L40.15 58.7C40.075 58.7 40 58.625 40 58.55L40 56.6C40 56.525 40.075 56.45 40.15 56.45L41.35 56.45C41.425 56.45 41.5 56.525 41.5 56.6L41.5 58.55C41.5 58.625 41.5 58.7 41.35 58.7Z" fill="#ff4e00" fill-rule="evenodd" opacity="1" stroke="#ff4e00" stroke-linecap="butt" stroke-linejoin="miter" stroke-width="1.5"/>
<path d="M75.85 58.7L74.65 58.7C74.575 58.7 74.5 58.625 74.5 58.55L74.5 56.6C74.5 56.525 74.575 56.45 74.65 56.45L75.85 56.45C75.925 56.45 76 56.525 76 56.6L76 58.55C76 58.625 76 58.7 75.85 58.7Z" fill="#ff4e00" fill-rule="evenodd" opacity="1" stroke="#ff4e00" stroke-linecap="butt" stroke-linejoin="miter" stroke-width="1.5"/>
<path d="M49.975 67.17L48.775 67.17C48.7 67.17 48.625 67.095 48.625 67.02L48.625 65.07C48.625 64.995 48.7 64.92 48.775 64.92L49.975 64.92C50.05 64.92 50.125 64.995 50.125 65.07L50.125 67.02C50.125 67.095 50.125 67.17 49.975 67.17Z" fill="#ff4e00" fill-rule="evenodd" opacity="1" stroke="#ff4e00" stroke-linecap="butt" stroke-linejoin="miter" stroke-width="1.5"/>
<path d="M58.6 67.175L57.4 67.175C57.325 67.175 57.25 67.1 57.25 67.025L57.25 65.075C57.25 65 57.325 64.925 57.4 64.925L58.6 64.925C58.675 64.925 58.75 65 58.75 65.075L58.75 67.025C58.75 67.1 58.75 67.175 58.6 67.175Z" fill="#ff4e00" fill-rule="evenodd" opacity="1" stroke="#ff4e00" stroke-linecap="butt" stroke-linejoin="miter" stroke-width="1.5"/>
<path d="M67.225 67.17L66.025 67.17C65.95 67.17 65.875 67.095 65.875 67.02L65.875 65.07C65.875 64.995 65.95 64.92 66.025 64.92L67.225 64.92C67.3 64.92 67.375 64.995 67.375 65.07L67.375 67.02C67.375 67.095 67.375 67.17 67.225 67.17Z" fill="#ff4e00" fill-rule="evenodd" opacity="1" stroke="#ff4e00" stroke-linecap="butt" stroke-linejoin="miter" stroke-width="1.5"/>
<path d="M49.975 41.825L48.775 41.825C48.7 41.825 48.625 41.75 48.625 41.675L48.625 39.725C48.625 39.65 48.7 39.575 48.775 39.575L49.975 39.575C50.05 39.575 50.125 39.65 50.125 39.725L50.125 41.675C50.125 41.75 50.125 41.825 49.975 41.825Z" fill="#ff4e00" fill-rule="evenodd" opacity="1" stroke="#ff4e00" stroke-linecap="butt" stroke-linejoin="miter" stroke-width="1.5"/>
<path d="M67.225 41.825L66.025 41.825C65.95 41.825 65.875 41.75 65.875 41.675L65.875 39.725C65.875 39.65 65.95 39.575 66.025 39.575L67.225 39.575C67.3 39.575 67.375 39.65 67.375 39.725L67.375 41.675C67.375 41.75 67.375 41.825 67.225 41.825Z" fill="#ff4e00" fill-rule="evenodd" opacity="1" stroke="#ff4e00" stroke-linecap="butt" stroke-linejoin="miter" stroke-width="1.5"/>
</g>
</g>
</g>
</g>
</svg>
